# xmcd
#
# Track frame offsets: 
#        150
#        6625
#        24863
#        44313
#        62269
#        90182
#        113016
#        137155
#        140657
#        159036
#        179432
#        198045
#        215433
#        239649
#        264231
#        284243
#
# Disc length: 4121 seconds
#
# Revision: 0
# Processed by: cddbd v1.5.2PL0 Copyright (c) Steve Scherf et al.
# Submitted via: ExactAudioCopy v0.99pb4
#
DISCID=d9101710
DTITLE=Dose - Overdose
DYEAR=2009
DGENRE=Electronic
TTITLE0=Liquidwet Intro
TTITLE1=Lost Inside You
TTITLE2=Sexy
TTITLE3=Fuego
TTITLE4=You Always Said
TTITLE5=17
TTITLE6=Make It Right
TTITLE7=FU Intro
TTITLE8=FU
TTITLE9=Got Dubs
TTITLE10=Heavyweight
TTITLE11=I'll Do That
TTITLE12=Freeze
TTITLE13=Them Things
TTITLE14=Sexy (Remix) (Bonus Track)
TTITLE15=17 (Remix) (Bonus Track)
EXTD=
EXTT0=
EXTT1=
EXTT2=
EXTT3=
EXTT4=
EXTT5=
EXTT6=
EXTT7=
EXTT8=
EXTT9=
EXTT10=
EXTT11=
EXTT12=
EXTT13=
EXTT14=
EXTT15=
PLAYORDER=
